<?xml version="1.0" encoding="UTF-8"?><!DOCTYPE svg PUBLIC "-//W3C//DTD SVG 1.1//EN" "http://www.w3.org/Graphics/SVG/1.1/DTD/svg11.dtd"><svg xmlns="http://www.w3.org/2000/svg" xmlns:xlink="http://www.w3.org/1999/xlink"><symbol id="add_task" viewBox="0 0 24 24"><path fill="none" d="M0 0h24v24H0z"/><path d="M22 5.18L10.59 16.6l-4.24-4.24 1.41-1.41 2.83 2.83 10-10L22 5.18zM12 20c-4.41 0-8-3.59-8-8s3.59-8 8-8c1.57 0 3.04.46 4.28 1.25l1.45-1.45A10.02 10.02 0 0012 2C6.48 2 2 6.48 2 12s4.48 10 10 10c1.73 0 3.36-.44 4.78-1.22l-1.5-1.5c-1 .46-2.11.72-3.28.72zm7-5h-3v2h3v3h2v-3h3v-2h-3v-3h-2v3z"/></symbol><symbol id="done_all" viewBox="0 0 24 24"><path d="M0 0h24v24H0z" fill="none"/><path d="M18 7l-1.41-1.41-6.34 6.34 1.41 1.41L18 7zm4.24-1.41L11.66 16.17 7.48 12l-1.41 1.41L11.66 19l12-12-1.42-1.41zM.41 13.41L6 19l1.41-1.41L1.83 12 .41 13.41z"/></symbol><symbol id="face" viewBox="0 0 24 24"><path d="M0 0h24v24H0z" fill="none"/><path d="M9 11.75a1.25 1.25 0 100 2.5 1.25 1.25 0 000-2.5zm6 0a1.25 1.25 0 100 2.5 1.25 1.25 0 000-2.5zM12 2C6.48 2 2 6.48 2 12s4.48 10 10 10 10-4.48 10-10S17.52 2 12 2zm0 18c-4.41 0-8-3.59-8-8 0-.29.02-.58.05-.86 2.36-1.05 4.23-2.98 5.21-5.37a9.974 9.974 0 0010.41 3.97c.21.71.33 1.47.33 2.26 0 4.41-3.59 8-8 8z"/></symbol><symbol id="swap_horiz" viewBox="0 0 24 24"><path d="M0 0h24v24H0z" fill="none"/><path d="M6.99 11L3 15l3.99 4v-3H14v-2H6.99v-3zM21 9l-3.99-4v3H10v2h7.01v3L21 9z"/></symbol></svg>